<?xml version="1.0" encoding="UTF-8" standalone="no"?>
<!-- Created with Inkscape (http://www.inkscape.org/) -->

<svg
   width="85.599998mm"
   height="53.98mm"
   viewBox="0 0 85.599998 53.98"
   version="1.1"
   id="svg5"
   inkscape:version="1.1 (c68e22c387, 2021-05-23)"
   sodipodi:docname="logo.svg"
   inkscape:export-filename="D:\32ma_me\logo.png"
   inkscape:export-xdpi="207.60001"
   inkscape:export-ydpi="207.60001"
   xmlns:inkscape="http://www.inkscape.org/namespaces/inkscape"
   xmlns:sodipodi="http://sodipodi.sourceforge.net/DTD/sodipodi-0.dtd"
   xmlns="http://www.w3.org/2000/svg"
   xmlns:svg="http://www.w3.org/2000/svg">
  <defs
     id="defs2" />
  <g
     inkscape:label="レイヤー 1"
     inkscape:groupmode="layer"
     id="layer1">
    <path
       id="path8004"
       style="font-size:44.2697px;line-height:1.25;font-family:WindSong;-inkscape-font-specification:WindSong;stroke-width:4.18295"
       d="M 57.943359 32.154297 C 50.804437 32.154297 43.944478 32.823561 37.363281 34.162109 C 30.782085 35.389112 24.813178 37.507798 19.458984 40.519531 C 14.104791 43.531265 9.6436812 47.659696 6.0742188 52.902344 C 5.4049445 53.906254 5.0703125 54.910149 5.0703125 55.914062 C 5.0703125 56.806427 5.2940516 57.251953 5.7402344 57.251953 C 6.4095086 57.251953 7.0223496 56.750004 7.5800781 55.746094 C 12.153452 48.607168 18.78967 43.698582 27.490234 41.021484 C 36.1908 38.232843 45.784237 36.839844 56.269531 36.839844 C 64.300823 36.839844 72.55573 37.452684 81.033203 38.679688 C 89.399129 39.795145 97.597614 41.244566 105.62891 43.029297 C 113.6602 44.702481 121.133 46.432066 128.04883 48.216797 C 135.07621 49.889984 141.15601 51.339403 146.28711 52.566406 C 147.40257 52.789497 148.57378 53.06966 149.80078 53.404297 C 151.02778 53.738934 152.30989 54.017141 153.64844 54.240234 C 149.29816 58.255879 144.83705 62.495203 140.26367 66.957031 C 136.92306 70.29764 133.7389 73.637907 130.71094 76.978516 C 129.93921 77.577944 129.06066 78.297656 128.04883 79.169922 C 121.24454 85.19339 114.1628 90.603926 106.80078 95.400391 C 99.438766 100.19686 91.796696 104.37976 83.876953 107.94922 C 84.100044 105.60676 84.045574 103.59897 83.710938 101.92578 C 83.153208 98.914047 81.3672 96.795363 78.355469 95.568359 C 75.455279 94.229812 72.165383 93.560547 68.484375 93.560547 L 66.644531 93.560547 C 66.086801 93.560547 65.52843 93.615016 64.970703 93.726562 C 69.097894 91.495648 73.169902 89.098754 77.185547 86.533203 C 81.312738 83.96765 85.104585 81.290594 88.5625 78.501953 C 90.12414 77.27495 91.184458 76.21463 91.742188 75.322266 C 92.411461 74.318353 92.746094 73.425349 92.746094 72.644531 C 92.746094 71.082891 91.742199 69.85721 89.734375 68.964844 C 87.838098 68.07248 85.662989 67.403215 83.208984 66.957031 C 80.866524 66.510848 78.969625 66.287109 77.519531 66.287109 C 70.492152 66.064019 64.077719 66.342229 58.277344 67.123047 C 52.476966 67.903867 47.84854 69.020609 44.390625 70.470703 C 40.932708 71.9208 39.203125 73.537535 39.203125 75.322266 C 39.203125 76.772359 39.648649 78.167312 40.541016 79.505859 C 41.544926 80.732863 42.270614 81.680336 42.716797 82.349609 C 42.828341 82.795793 43.219396 83.019531 43.888672 83.019531 C 44.111765 83.019531 44.222656 82.906687 44.222656 82.683594 C 43.999563 82.237413 43.888672 81.62457 43.888672 80.84375 C 43.888672 80.174476 44.055988 79.561636 44.390625 79.003906 C 44.725262 78.446179 45.059894 78.055124 45.394531 77.832031 C 46.398442 76.939667 47.345915 76.326827 48.238281 75.992188 C 49.242192 75.657551 50.135195 75.322918 50.916016 74.988281 C 51.919926 74.542098 54.038613 73.983727 57.273438 73.314453 C 60.508265 72.533633 64.078324 71.864368 67.982422 71.306641 C 71.998067 70.748911 75.568126 70.470703 78.691406 70.470703 C 80.810774 70.470703 82.538403 70.692489 83.876953 71.138672 C 85.215501 71.473309 85.884766 72.088102 85.884766 72.980469 C 85.884766 74.430563 84.60266 76.271039 82.037109 78.501953 C 79.471559 80.732867 76.292554 83.075292 72.5 85.529297 C 68.818992 87.983304 65.194461 90.212882 61.625 92.220703 L 53.425781 96.90625 C 50.86023 97.68707 48.294066 98.523652 45.728516 99.416016 C 43.274511 100.19684 41.155824 100.97699 39.371094 101.75781 C 37.697905 102.42709 36.748481 102.98546 36.525391 103.43164 C 36.413847 103.76628 36.302953 104.10091 36.191406 104.43555 L 36.191406 105.27148 C 36.191406 106.72158 37.195302 107.44727 39.203125 107.44727 C 40.541672 107.44727 42.271255 107.11263 44.390625 106.44336 C 48.294723 104.99327 51.19552 103.37653 53.091797 101.5918 C 55.09962 99.695522 56.940097 98.189676 58.613281 97.074219 C 59.617192 96.851126 60.564665 96.683812 61.457031 96.572266 C 62.460942 96.349173 63.408415 96.236328 64.300781 96.236328 C 67.424059 96.236328 70.101117 96.962016 72.332031 98.412109 C 74.674492 99.750659 76.069442 101.53471 76.515625 103.76562 C 76.627171 104.21181 76.683594 104.60286 76.683594 104.9375 L 76.683594 106.10938 C 76.683594 107.67102 76.51628 109.28775 76.181641 110.96094 C 71.162085 112.96876 65.584231 115.14387 59.449219 117.48633 C 53.314204 119.82879 47.177981 122.44942 41.042969 125.34961 C 34.907954 128.2498 29.275633 131.48523 24.144531 135.05469 C 19.013429 138.7357 14.886951 142.8077 11.763672 147.26953 C 8.6403925 151.73136 7.078125 156.69442 7.078125 162.16016 C 7.078125 165.28343 8.0820214 167.68228 10.089844 169.35547 C 12.209212 171.02865 14.662529 171.86523 17.451172 171.86523 C 22.69382 171.86523 27.267776 170.97223 31.171875 169.1875 C 35.18752 167.40277 38.477416 165.61872 41.042969 163.83398 C 46.062524 160.48761 51.083958 156.47203 56.103516 151.78711 C 61.123071 147.10219 65.640605 142.1936 69.65625 137.0625 C 73.002621 132.71222 75.901462 128.30558 78.355469 123.84375 C 80.809473 119.49347 82.482633 115.36699 83.375 111.46289 C 91.294743 108.22806 98.823965 104.43622 105.96289 100.08594 C 110.7677 97.158009 115.5465 93.763229 120.30078 89.925781 C 119.59799 90.984072 118.94595 92.0296 118.3457 93.058594 C 116.00324 97.074238 114.83203 100.58788 114.83203 103.59961 C 114.83203 107.7268 116.22503 110.51475 119.01367 111.96484 C 121.91386 113.41494 125.26018 114.14063 129.05273 114.14062 C 133.29147 114.14062 137.53079 113.58225 141.76953 112.4668 C 146.11981 111.46289 149.40971 110.56988 151.64062 109.78906 C 156.10245 108.22742 160.50909 106.10874 164.85938 103.43164 C 169.3212 100.643 173.44768 97.798628 177.24023 94.898438 C 181.03279 91.886706 184.21179 89.209648 186.77734 86.867188 C 189.34289 84.413183 190.96159 82.740023 191.63086 81.847656 C 191.9655 81.289926 192.13281 80.844402 192.13281 80.509766 C 192.13281 80.175129 191.9655 80.007812 191.63086 80.007812 C 191.40777 80.007812 191.18403 80.062282 190.96094 80.173828 C 189.84548 81.289285 188.78516 82.182289 187.78125 82.851562 C 186.77734 83.520836 185.66255 84.357415 184.43555 85.361328 C 180.30836 88.819243 175.67993 92.33288 170.54883 95.902344 C 165.52927 99.360259 160.39694 102.26106 155.1543 104.60352 L 152.8125 105.60742 C 152.14323 105.94206 151.41754 106.22027 150.63672 106.44336 C 143.60934 109.00891 137.36418 110.29102 131.89844 110.29102 C 128.44052 110.29102 125.65062 109.67818 123.53125 108.45117 C 121.41188 107.22417 120.35352 105.38369 120.35352 102.92969 C 120.35352 100.47568 121.5792 97.353101 124.0332 93.560547 C 126.59875 89.767993 129.89061 85.695985 133.90625 81.345703 C 137.92189 76.883875 142.27211 72.477235 146.95703 68.126953 C 151.64195 63.665125 156.21395 59.538648 160.67578 55.746094 C 165.24915 56.526914 170.04685 57.252601 175.06641 57.921875 C 180.19751 58.591149 185.16057 58.925781 189.95703 58.925781 C 192.5734 58.925781 195.08611 58.796959 197.50586 58.556641 C 197.75195 59.206059 198.24327 59.832506 198.99219 60.431641 C 200.21919 61.324007 200.83203 62.717004 200.83203 64.613281 C 200.83203 66.509558 200.21919 68.684667 198.99219 71.138672 C 197.87673 73.592679 196.48178 76.102418 194.80859 78.667969 C 193.13541 81.121973 191.51867 83.409929 189.95703 85.529297 C 188.39539 87.648667 187.16775 89.321827 186.27539 90.548828 C 184.93684 92.445105 183.26368 94.898422 181.25586 97.910156 C 179.24804 100.92189 177.46398 103.87716 175.90234 106.77734 C 174.34071 109.67753 173.56055 111.90906 173.56055 113.4707 C 173.56055 114.80925 174.17339 115.47852 175.40039 115.47852 C 175.95812 115.47852 176.96202 114.64193 178.41211 112.96875 C 179.8622 111.40711 181.64626 109.45574 183.76562 107.11328 C 185.885 104.65927 188.11653 102.31685 190.45898 100.08594 C 193.24763 97.40884 196.20289 94.618938 199.32617 91.71875 C 202.44945 88.818562 205.35025 86.197929 208.02734 83.855469 C 210.81599 81.401464 212.82378 79.784726 214.05078 79.003906 C 215.38933 78.11154 216.89517 77.218536 218.56836 76.326172 C 220.35309 75.322261 221.91536 74.820312 223.25391 74.820312 C 224.14627 74.820312 224.87001 75.154945 225.42773 75.824219 C 225.98546 76.381946 226.26563 77.442266 226.26562 79.003906 L 226.26562 80.007812 C 226.26562 80.342449 226.2092 80.731551 226.09766 81.177734 C 225.87457 83.074012 225.26173 85.472859 224.25781 88.373047 C 223.2539 91.161691 222.25 93.895171 221.24609 96.572266 C 220.35373 99.249363 219.79536 101.31162 219.57227 102.76172 C 219.34917 104.43491 219.51649 105.71896 220.07422 106.61133 C 220.74349 107.50369 221.6365 107.94922 222.75195 107.94922 C 224.20205 107.94922 225.48415 107.22353 226.59961 105.77344 C 227.49198 104.65798 228.71961 102.93035 230.28125 100.58789 C 231.95443 98.245433 233.73849 95.846585 235.63477 93.392578 C 237.64259 90.827027 239.59396 88.708341 241.49023 87.035156 C 242.04796 88.596794 242.60634 90.715481 243.16406 93.392578 C 243.83334 95.958129 244.78081 98.635184 246.00781 101.42383 C 247.34636 104.10093 249.24326 106.38693 251.69727 108.2832 C 254.26282 110.06794 257.60914 110.96094 261.73633 110.96094 C 263.63261 110.96094 265.5295 110.68273 267.42578 110.125 C 269.4336 109.56727 271.49782 108.89801 273.61719 108.11719 C 277.63283 106.444 281.592 104.37979 285.49609 101.92578 C 289.51174 99.36023 293.30358 96.683175 296.87305 93.894531 C 300.44251 91.10589 303.56704 88.652571 306.24414 86.533203 C 310.03669 83.298376 312.76822 80.454004 314.44141 78 C 316.22614 75.434449 316.84093 74.150391 316.2832 74.150391 C 316.06011 74.150391 315.50174 74.485023 314.60938 75.154297 L 304.06836 83.855469 C 299.38344 87.648023 294.80948 91.16166 290.34766 94.396484 C 285.99737 97.631311 281.47984 100.41926 276.79492 102.76172 C 274.89864 103.65409 272.66907 104.49066 270.10352 105.27148 C 267.53796 105.94076 265.13912 106.27539 262.9082 106.27539 C 261.56966 106.27539 260.34202 106.1645 259.22656 105.94141 C 258.11111 105.60677 257.10721 105.0484 256.21484 104.26758 C 254.09548 102.3713 252.47874 100.14172 251.36328 97.576172 C 250.35937 94.899075 249.63368 92.389335 249.1875 90.046875 C 248.74132 87.592871 248.35026 85.695972 248.01562 84.357422 C 247.90408 83.576604 247.68229 82.796445 247.34766 82.015625 C 247.01302 81.123258 246.39823 80.675781 245.50586 80.675781 C 245.05968 80.675781 244.39041 80.89952 243.49805 81.345703 C 242.71723 81.68034 241.71333 82.406027 240.48633 83.521484 C 238.81314 84.971578 236.9182 87.03384 234.79883 89.710938 C 232.79101 92.276488 230.89411 94.731758 229.10938 97.074219 C 227.32464 99.416677 225.92969 100.97699 224.92578 101.75781 C 225.26042 100.86545 225.81879 99.472449 226.59961 97.576172 C 227.49198 95.679895 228.38498 93.559257 229.27734 91.216797 C 230.28126 88.762792 231.11784 86.420367 231.78711 84.189453 C 232.45638 81.846993 232.79102 79.952047 232.79102 78.501953 C 232.79102 77.163406 232.67817 75.824878 232.45508 74.486328 C 232.34353 73.147781 231.6198 72.087461 230.28125 71.306641 C 229.05425 70.414274 226.76629 70.136066 223.41992 70.470703 C 221.52364 70.58225 218.95943 71.753461 215.72461 73.984375 C 212.48978 76.103743 208.97615 78.780798 205.18359 82.015625 C 201.50259 85.138903 197.82163 88.428801 194.14062 91.886719 C 190.57116 95.344636 187.33573 98.52364 184.43555 101.42383 C 181.64691 104.32402 179.63911 106.49912 178.41211 107.94922 C 178.96984 107.1684 180.41926 105.32792 182.76172 102.42773 C 185.21572 99.416 187.9492 96.180574 190.96094 92.722656 C 193.74958 89.487832 196.48306 86.421672 199.16016 83.521484 C 201.83725 80.621297 204.17968 77.442292 206.1875 73.984375 C 207.4145 71.976554 208.02734 70.136077 208.02734 68.462891 C 208.02734 67.124343 207.69271 65.953132 207.02344 64.949219 C 206.35416 63.945308 205.6849 63.052305 205.01562 62.271484 C 204.2348 61.267574 203.39822 60.37457 202.50586 59.59375 C 201.86326 59.031477 201.25077 58.558668 200.66602 58.169922 C 202.57094 57.886739 204.41371 57.527433 206.1875 57.083984 C 211.09551 55.856983 215.05467 53.738297 218.06641 50.726562 C 221.07814 47.603282 222.58398 43.420383 222.58398 38.177734 C 222.58398 37.620006 222.52952 37.005212 222.41797 36.335938 C 222.41797 35.666663 222.36155 34.997399 222.25 34.328125 C 222.02691 33.770396 221.63585 33.492188 221.07812 33.492188 C 220.5204 33.492187 220.24219 33.770396 220.24219 34.328125 L 220.24219 34.496094 C 220.91146 39.515651 219.90757 43.476765 217.23047 46.376953 C 214.66492 49.165594 210.98396 51.173387 206.1875 52.400391 C 201.39104 53.515848 196.03692 54.072266 190.125 54.072266 C 186.2209 54.072266 182.09247 53.904949 177.74219 53.570312 C 173.50345 53.124129 169.32055 52.567711 165.19336 51.898438 C 168.42818 49.332887 171.27256 47.101355 173.72656 45.205078 C 176.18057 43.308801 178.07747 41.970273 179.41602 41.189453 C 179.97374 40.854816 180.97764 40.185551 182.42773 39.181641 C 183.98937 38.066183 184.76953 37.17318 184.76953 36.503906 C 184.76953 35.723086 184.10027 34.997399 182.76172 34.328125 C 181.42317 33.658851 179.97375 33.156903 178.41211 32.822266 C 176.96202 32.487629 175.84723 32.487629 175.06641 32.822266 C 172.94704 33.714631 171.21746 34.831373 169.87891 36.169922 C 168.54036 37.508469 167.87109 38.736105 167.87109 39.851562 C 167.87109 40.409292 168.03841 40.854816 168.37305 41.189453 L 157.49805 50.726562 C 153.03622 49.834196 148.79689 48.941192 144.78125 48.048828 C 140.87715 47.156462 137.58725 46.319883 134.91016 45.539062 L 120.18555 41.859375 C 114.49672 40.297735 108.19513 38.791891 101.2793 37.341797 C 94.475011 35.891703 87.391313 34.664068 80.029297 33.660156 C 72.555735 32.656245 65.193831 32.154297 57.943359 32.154297 z M 315.67578 102.16406 C 314.54333 102.16156 313.29459 102.36085 311.93164 102.76172 C 310.14691 103.31945 308.9757 104.37977 308.41797 105.94141 C 308.08333 106.72223 307.91602 107.55881 307.91602 108.45117 C 307.91602 110.79363 309.03276 111.96484 311.26367 111.96484 C 312.37913 111.96484 313.49392 111.57379 314.60938 110.79297 C 315.83638 110.1237 316.78385 109.1198 317.45312 107.78125 C 318.1224 106.4427 318.45703 105.27149 318.45703 104.26758 C 318.45703 103.04057 317.95508 102.37131 316.95117 102.25977 C 316.54333 102.19702 316.11891 102.16504 315.67578 102.16406 z M 75.009766 114.64258 C 73.894309 117.54277 72.388465 120.60893 70.492188 123.84375 C 68.59591 127.19012 66.420804 130.48197 63.966797 133.7168 C 61.512792 137.06317 58.611996 140.6877 55.265625 144.5918 C 51.919254 148.60744 48.294723 152.39929 44.390625 155.96875 C 40.598071 159.53821 36.582487 162.49543 32.34375 164.83789 C 28.105014 167.18035 23.809267 168.35156 19.458984 168.35156 C 17.22807 168.35156 15.333124 167.73872 13.771484 166.51172 C 12.209844 165.39626 11.484157 163.38652 11.595703 160.48633 C 11.93034 155.57832 13.6035 151.11721 16.615234 147.10156 C 19.626968 143.08592 23.475237 139.40496 28.160156 136.05859 C 32.956621 132.82377 38.143418 129.8685 43.720703 127.19141 C 49.297988 124.62586 54.819418 122.28343 60.285156 120.16406 C 65.750895 118.15624 70.659482 116.31576 75.009766 114.64258 z "
       transform="scale(0.26458333)" />
  </g>
</svg>
